<svg xmlns="http://www.w3.org/2000/svg" height="463pt" version="1.1" viewBox="0 0 463 463.29955" width="463pt">
<g id="surface1">
<path d="M 118.949219 73.539062 L 192.488281 0 L 260.367188 67.882812 L 186.828125 141.421875 Z M 118.949219 73.539062 " style=" stroke:none;fill-rule:nonzero;fill:rgb(58.823529%,58.039216%,61.176471%);fill-opacity:1;" />
<path d="M 0.148438 192.34375 L 73.6875 118.804688 L 141.570312 186.683594 L 68.03125 260.222656 Z M 0.148438 192.34375 " style=" stroke:none;fill-rule:nonzero;fill:rgb(48.627451%,48.627451%,50.196078%);fill-opacity:1;" />
<path d="M 164.199219 164.050781 L 141.566406 186.683594 L 413.503906 458.609375 C 419.753906 464.863281 429.886719 464.863281 436.136719 458.609375 L 447.449219 447.300781 Z M 164.199219 164.050781 " style=" stroke:none;fill-rule:nonzero;fill:rgb(37.647059%,22.352941%,7.45098%);fill-opacity:1;" />
<path d="M 447.449219 447.300781 L 458.761719 435.988281 C 465.011719 429.738281 465.011719 419.605469 458.761719 413.355469 L 186.832031 141.425781 L 164.199219 164.050781 Z M 447.449219 447.300781 " style=" stroke:none;fill-rule:nonzero;fill:rgb(45.882353%,29.803922%,16.078431%);fill-opacity:1;" />
<path d="M 79.351562 79.203125 L 68.039062 90.515625 C 61.789062 96.765625 61.789062 106.898438 68.039062 113.148438 L 73.695312 118.804688 L 96.320312 96.171875 Z M 79.351562 79.203125 " style=" stroke:none;fill-rule:nonzero;fill:rgb(37.647059%,22.352941%,7.45098%);fill-opacity:1;" />
<path d="M 118.953125 73.546875 L 113.296875 67.890625 C 107.046875 61.640625 96.914062 61.640625 90.664062 67.890625 L 79.351562 79.203125 L 96.320312 96.171875 Z M 118.953125 73.546875 " style=" stroke:none;fill-rule:nonzero;fill:rgb(45.882353%,29.803922%,16.078431%);fill-opacity:1;" />
<path d="M 120.089844 119.9375 C 126.367188 113.875 136.34375 113.960938 142.515625 120.132812 C 148.6875 126.304688 148.777344 136.285156 142.710938 142.5625 L 164.199219 164.050781 L 186.824219 141.425781 L 118.945312 73.546875 L 96.3125 96.171875 Z M 120.089844 119.9375 " style=" stroke:none;fill-rule:nonzero;fill:rgb(87.843137%,87.843137%,88.627451%);fill-opacity:1;" />
<path d="M 142.710938 142.5625 C 136.433594 148.625 126.453125 148.539062 120.28125 142.367188 C 114.113281 136.195312 114.023438 126.21875 120.089844 119.9375 L 96.320312 96.171875 L 73.695312 118.804688 L 141.578125 186.683594 L 164.199219 164.050781 Z M 142.710938 142.5625 " style=" stroke:none;fill-rule:nonzero;fill:rgb(82.745098%,82.352941%,83.921569%);fill-opacity:1;" />
<path d="M 120.089844 142.5625 C 126.335938 148.808594 136.464844 148.808594 142.710938 142.5625 L 120.089844 119.9375 C 113.84375 126.1875 113.84375 136.316406 120.089844 142.5625 Z M 120.089844 142.5625 " style=" stroke:none;fill-rule:nonzero;fill:rgb(58.823529%,58.039216%,61.176471%);fill-opacity:1;" />
<path d="M 142.710938 119.9375 C 136.464844 113.691406 126.335938 113.691406 120.089844 119.9375 L 142.710938 142.5625 C 148.957031 136.316406 148.957031 126.1875 142.710938 119.9375 Z M 142.710938 119.9375 " style=" stroke:none;fill-rule:nonzero;fill:rgb(67.058824%,66.666667%,69.019608%);fill-opacity:1;" />
</g>
</svg>