<?xml version="1.0" ?><svg data-name="Layer 1" id="Layer_1" viewBox="0 0 64 64" xmlns="http://www.w3.org/2000/svg"><defs><style>.cls-1{fill:#bf6830;}.cls-2{fill:#ecf1f6;}.cls-3{fill:#fc445d;}.cls-4{opacity:0.15;}</style></defs><title/><path class="cls-1" d="M38.59,21.55l3.83-3.83A2,2,0,0,0,43,16.23a2.09,2.09,0,0,0-3.57-1.48L35.6,18.62c.23.26.47.51.72.76C37.07,20.14,37.82,20.87,38.59,21.55Z"/><path class="cls-1" d="M10.89,49.25,32,28.14l1.67-1.67c-.53-.56-1.09-1.11-1.67-1.65l-.58-.54-.8-.68L7.93,46.29a2.09,2.09,0,1,0,3,3Z"/><path class="cls-2" d="M47.71,35.95a16.38,16.38,0,0,1-5.94,3.77,45.45,45.45,0,0,1,1.59,5.2A16.23,16.23,0,0,0,56.68,31.59a51.77,51.77,0,0,1-5.1-1.87A16.19,16.19,0,0,1,47.71,35.95Z"/><path class="cls-3" d="M30.62,23.6l.8.68.58.54c.58.54,1.14,1.09,1.67,1.65a39.1,39.1,0,0,1,8.09,13.24,16.38,16.38,0,0,0,5.94-3.77,16.19,16.19,0,0,0,3.87-6.23,47.25,47.25,0,0,1-13-8.17c-.77-.68-1.52-1.41-2.27-2.17-.25-.25-.49-.5-.72-.76s-.7-.76-1-1.14Q33.29,16,32.25,14.57l-.25.25-5.67,5.67a35.17,35.17,0,0,1,4.24,3.07Z"/><g class="cls-4"><path d="M41.76,39.71a45.45,45.45,0,0,1,1.59,5.2A16.23,16.23,0,0,0,56.68,31.59a51.77,51.77,0,0,1-5.1-1.87,16.19,16.19,0,0,1-3.87,6.23A16.38,16.38,0,0,1,41.76,39.71Z"/></g><g class="cls-4"><path d="M33.67,26.47a39.1,39.1,0,0,1,8.09,13.24,16.38,16.38,0,0,0,5.94-3.77,16.19,16.19,0,0,0,3.87-6.23,47.25,47.25,0,0,1-13-8.17c-.77-.68-1.52-1.41-2.27-2.17-.25-.25-.49-.5-.72-.76s-.7-.76-1-1.14Q33.29,16,32.25,14.57l-.25.25v10C32.58,25.36,33.14,25.91,33.67,26.47Z"/></g><g class="cls-4"><path d="M38.59,21.55l3.83-3.83A2,2,0,0,0,43,16.23a2.09,2.09,0,0,0-3.57-1.48L35.6,18.62c.23.26.47.51.72.76C37.07,20.14,37.82,20.87,38.59,21.55Z"/></g></svg>